<?xml version="1.0" standalone="no"?>
<!DOCTYPE svg PUBLIC "-//W3C//DTD SVG 20010904//EN"
 "http://www.w3.org/TR/2001/REC-SVG-20010904/DTD/svg10.dtd">
<svg version="1.0" xmlns="http://www.w3.org/2000/svg"
 width="1024.000000pt" height="1024.000000pt" viewBox="0 0 1024.000000 1024.000000"
 preserveAspectRatio="xMidYMid meet">

<g transform="translate(0.000000,1024.000000) scale(0.100000,-0.100000)"
fill="#000000" stroke="none">
<path d="M3325 9230 c-192 -5 -205 -9 -249 -61 -23 -27 -26 -39 -26 -103 l0
-73 -292 -6 c-280 -5 -297 -6 -383 -32 -49 -14 -121 -43 -160 -63 -95 -50
-209 -164 -257 -257 -74 -143 -71 -116 -75 -842 -2 -359 -7 -653 -12 -653 -4
0 -25 8 -47 19 -100 47 -211 51 -322 9 -41 -15 -74 -39 -127 -92 -64 -63 -74
-79 -93 -141 -42 -139 -38 -258 13 -360 14 -27 58 -89 99 -137 41 -48 93 -121
116 -163 29 -53 53 -83 80 -100 51 -32 77 -68 150 -210 34 -66 122 -210 196
-320 139 -209 162 -258 126 -267 -12 -3 -29 0 -39 7 -19 14 -91 115 -204 290
-126 193 -238 331 -455 561 -151 159 -198 190 -283 182 -63 -6 -166 -54 -200
-94 -83 -94 -77 -245 13 -367 11 -16 82 -79 156 -141 184 -154 474 -418 658
-598 l152 -151 0 -158 c0 -175 -13 -247 -65 -349 -45 -89 -176 -460 -318 -900
-19 -58 -49 -139 -67 -180 l-34 -75 -4 -254 c-2 -139 -1 -268 2 -287 4 -18 25
-56 47 -83 l39 -51 -2 -527 c-3 -588 -4 -585 67 -739 41 -89 70 -132 137 -202
78 -82 158 -136 249 -171 169 -65 -35 -61 3148 -62 2543 0 2903 1 2951 15 99
27 220 77 279 117 92 62 203 185 245 272 72 149 76 185 76 778 l0 526 40 46
c68 77 70 87 70 355 0 180 -4 252 -15 297 -22 87 -128 426 -186 594 -27 79
-70 214 -95 300 l-45 156 3 307 3 307 -36 30 c-36 30 -59 80 -73 163 -7 39
-36 68 -68 68 -10 0 -18 6 -18 13 0 14 68 115 197 294 44 62 96 137 113 169
20 33 46 63 64 73 17 9 48 32 68 52 33 32 38 43 38 81 0 83 -65 150 -147 151
-65 1 -110 -25 -148 -87 -16 -27 -55 -76 -86 -110 -31 -33 -71 -87 -89 -118
-17 -32 -33 -58 -35 -58 -2 0 -2 89 -1 197 l2 197 55 14 c84 21 228 94 289
147 153 132 330 387 396 568 84 233 6 477 -183 573 -49 24 -70 29 -133 29
-128 -1 -217 -60 -300 -203 -57 -96 -152 -220 -158 -204 -1 5 28 57 66 115 78
118 90 162 73 254 -12 61 -29 97 -68 144 l-28 33 -6 385 c-7 420 -9 440 -69
567 -35 73 -141 186 -224 239 -139 89 -288 115 -648 115 l-208 0 0 73 c0 86
-19 124 -76 153 -36 17 -59 19 -269 15 -252 -3 -266 -6 -307 -63 -18 -25 -24
-50 -27 -105 l-3 -73 -607 -2 c-333 -2 -732 -2 -886 -2 -154 1 -467 2 -696 3
l-415 1 -11 81 c-9 71 -15 85 -44 115 -36 37 -84 55 -139 52 -19 -1 -116 -5
-215 -8z m289 -108 c13 -15 18 -36 18 -72 -1 -29 -2 -53 -4 -55 -2 -1 -19 -5
-39 -8 -36 -5 -37 -5 -42 35 -3 22 -7 40 -9 41 -1 1 -69 1 -149 -1 l-147 -3
-6 -34 c-6 -30 -11 -34 -47 -40 -22 -4 -43 -4 -46 -1 -3 3 -6 32 -7 65 -2 95
-2 95 232 101 108 3 204 2 212 -2 8 -3 23 -15 34 -26z m3276 13 c33 -17 36
-29 31 -126 -1 -23 -5 -26 -33 -25 -38 1 -48 11 -48 49 l0 28 -152 -3 -152 -3
-8 -32 c-5 -18 -12 -33 -17 -33 -5 0 -23 -3 -40 -6 l-31 -6 0 64 c0 110 -4
108 226 108 155 0 201 -3 224 -15z m785 -268 c102 -36 156 -68 224 -131 76
-71 125 -151 150 -244 19 -72 21 -104 21 -390 0 -171 -4 -313 -8 -316 -5 -3
-32 4 -61 14 -28 11 -61 20 -74 20 l-23 0 1 298 c0 289 -1 299 -23 355 -32 79
-116 168 -195 207 -134 65 65 60 -2652 60 -2686 0 -2520 3 -2634 -53 -99 -49
-205 -176 -239 -287 -16 -52 -23 -411 -22 -1100 0 -391 -3 -611 -9 -605 -5 6
-41 89 -80 185 l-71 175 0 680 c0 551 3 690 14 733 41 154 141 281 274 350 88
46 140 62 232 72 36 4 1197 7 2580 6 l2515 -1 80 -28z m-1227 -394 c2 -18 2
-34 0 -35 -2 -1 -110 -4 -241 -7 l-238 -6 -6 22 c-6 26 3 57 15 49 4 -2 23 -1
42 4 19 4 123 7 230 7 l195 -2 3 -32z m-2108 -22 c0 -28 -1 -28 -77 -35 -42
-3 -100 -6 -130 -6 l-53 0 0 35 0 35 130 0 130 0 0 -29z m963 12 c4 -2 7 -13
7 -24 0 -17 -8 -19 -90 -19 l-90 0 0 31 0 30 83 -7 c45 -3 85 -8 90 -11z
m-2567 -28 c24 -10 39 -25 50 -52 14 -33 14 -40 1 -69 -11 -22 -27 -36 -53
-44 -97 -32 -194 65 -136 136 36 45 79 54 138 29z m4802 -37 c7 -7 12 -26 12
-43 0 -50 -33 -71 -64 -39 -16 15 -22 75 -9 87 11 11 48 8 61 -5z m-3816 -613
c3 -311 3 -612 0 -670 l-5 -105 -109 0 c-72 0 -120 5 -143 14 -57 24 -130 100
-160 167 l-27 61 7 405 8 404 32 67 c49 104 123 167 232 202 32 11 81 19 109
19 l51 1 5 -565z m2877 545 c91 -35 194 -112 239 -180 17 -25 40 -74 52 -108
20 -62 21 -85 27 -933 l6 -869 -1346 0 -1347 0 0 75 0 75 108 1 c59 0 168 2
242 3 74 1 329 3 566 4 402 2 432 3 436 20 2 9 1 199 -2 422 l-5 405 -27 55
c-37 75 -80 117 -158 154 l-65 31 -415 0 -415 0 -55 -33 c-30 -19 -70 -48 -88
-65 -34 -32 -84 -122 -116 -208 -25 -66 -71 -118 -130 -145 -44 -20 -67 -24
-161 -24 l-110 0 3 668 2 668 1363 -2 c1104 0 1368 -3 1396 -14z m982 -251
c15 -30 6 -92 -21 -129 -23 -33 -60 -41 -60 -13 0 16 19 123 26 151 6 20 42
14 55 -9z m-4566 -48 c92 -43 158 -140 159 -236 1 -101 -45 -167 -161 -231
-68 -38 -88 -66 -99 -132 -8 -51 -15 -61 -44 -64 -24 -3 -25 1 -43 99 -12 73
-29 127 -57 185 -45 93 -52 156 -25 246 38 125 158 185 270 133z m4190 -11
c12 -24 15 -77 15 -301 l0 -271 -34 -34 c-32 -32 -38 -34 -99 -34 l-64 0 -6
138 c-4 75 -7 209 -7 297 0 88 -3 177 -7 198 l-6 37 96 0 96 0 16 -30z m-4687
5 c84 -36 142 -127 142 -225 0 -53 -25 -129 -60 -182 -22 -33 -35 -70 -45
-130 -26 -148 -20 -212 50 -521 31 -139 56 -281 72 -409 7 -53 19 -47 27 11 3
27 22 113 42 192 19 79 41 194 49 254 22 165 46 309 54 318 4 4 16 -1 25 -12
17 -19 18 -52 18 -521 -1 -276 -4 -505 -7 -510 -4 -6 -84 -10 -189 -10 -182 0
-184 0 -190 23 -11 40 -7 1017 4 1038 9 16 7 19 -8 19 -16 0 -20 10 -25 62 -7
76 -24 100 -107 150 -83 51 -105 71 -131 126 -28 56 -22 137 14 208 30 60 58
86 117 113 54 25 98 26 148 6z m5487 -344 c73 -35 149 -108 171 -167 35 -93
-7 -203 -141 -364 -30 -36 -105 -128 -168 -205 -112 -138 -185 -214 -240 -250
-37 -24 -80 -88 -101 -148 -9 -27 -27 -105 -41 -174 -13 -69 -26 -127 -27
-128 -2 -1 -49 -5 -105 -8 -115 -7 -111 -9 -94 63 88 363 89 372 33 497 -53
117 -62 153 -62 248 0 105 19 179 76 292 92 185 275 336 450 372 79 16 180 5
249 -28z m680 -259 c57 -31 117 -105 140 -171 34 -101 14 -242 -55 -376 -67
-130 -209 -340 -277 -410 -94 -97 -236 -163 -413 -191 -70 -10 -116 -25 -175
-54 -82 -40 -199 -129 -229 -175 -22 -33 -30 -32 -45 10 -7 20 -37 62 -66 94
l-54 58 137 139 c76 77 165 179 200 229 34 50 91 127 125 171 77 101 215 287
243 328 12 17 47 69 78 116 176 266 247 309 391 232z m-6920 -321 c94 -44 156
-122 199 -253 28 -86 101 -236 154 -315 l36 -55 -24 -18 c-23 -17 -180 -75
-184 -68 -1 2 -8 16 -14 32 -12 27 -15 28 -55 22 -23 -4 -67 -20 -99 -35 l-56
-28 -49 70 c-26 39 -63 79 -80 89 -18 10 -33 16 -33 14 0 -2 16 -30 35 -61 19
-32 32 -61 30 -65 -3 -4 2 -13 10 -20 8 -7 13 -16 10 -20 -3 -5 -1 -11 5 -15
6 -4 21 -28 34 -54 l24 -47 -44 -24 c-52 -27 -41 -37 -130 110 -31 52 -77 125
-101 161 -59 91 -95 174 -101 231 -6 58 13 159 38 208 28 53 100 118 156 140
66 26 184 26 239 1z m2950 1 c41 -14 51 -22 53 -43 3 -24 0 -27 -45 -33 -26
-3 -64 -9 -84 -12 -65 -11 -88 44 -37 89 25 21 48 21 113 -1z m486 8 c23 -13
26 -62 5 -80 -8 -6 -25 -10 -38 -8 -18 2 -24 10 -26 36 -6 59 13 76 59 52z
m-195 -26 c10 -38 -7 -78 -34 -82 -32 -5 -52 15 -52 52 0 39 15 56 52 56 22 0
29 -6 34 -26z m3064 -39 c0 -24 -37 -83 -83 -133 -30 -33 -60 -69 -66 -81 -15
-28 -31 -27 -31 2 1 24 35 72 115 160 45 51 65 66 65 52z m-4067 -169 c9 -63
5 -66 -94 -66 l-89 0 0 -129 0 -129 80 5 80 6 0 -36 c0 -61 -19 -67 -211 -67
-187 0 -192 2 -187 67 3 43 13 45 96 24 24 -6 47 -9 53 -6 5 4 9 66 9 138 l0
132 -92 0 -93 0 -3 47 -3 47 38 4 c21 2 122 3 224 3 l187 -1 5 -39z m1205 -32
c25 -7 29 -36 7 -54 -23 -19 -65 -4 -65 24 0 36 12 42 58 30z m-549 -13 c39
-10 36 -28 -8 -50 -52 -27 -97 -27 -111 -1 -8 15 -6 24 10 40 20 20 61 25 109
11z m345 -7 c29 -28 13 -94 -22 -94 -49 0 -82 66 -50 98 17 17 54 15 72 -4z
m-1620 -444 c5 -5 5 -38 1 -74 l-7 -66 -154 0 -154 0 0 79 0 79 153 -5 c83 -3
156 -9 161 -13z m744 -72 l-3 -63 -348 1 c-241 0 -351 4 -359 12 -14 14 -19
74 -6 89 7 9 85 12 286 13 152 0 278 3 281 5 2 3 38 5 78 5 l74 0 -3 -62z
m-2970 28 c60 -31 176 -151 282 -291 46 -60 103 -132 127 -159 41 -46 236
-321 280 -396 11 -19 24 -46 28 -60 6 -20 -3 -15 -50 30 -32 30 -75 78 -97
105 -59 73 -223 250 -384 413 l-141 144 4 42 c5 38 1 47 -28 81 -36 41 -82 65
-125 65 -42 0 -91 -56 -100 -116 -6 -44 -4 -55 24 -106 17 -31 28 -59 25 -62
-4 -3 -17 -6 -30 -6 -17 0 -32 13 -53 47 -51 80 -36 176 37 245 56 54 126 62
201 24z m1006 2 c22 -34 70 -159 151 -393 79 -229 101 -316 113 -443 l8 -83
-34 3 -35 3 -67 195 c-37 107 -83 236 -102 285 -87 224 -130 352 -131 388 -2
37 1 41 33 53 47 17 48 17 64 -8z m-276 0 c8 -8 12 -50 12 -121 l0 -110 -52
79 c-60 93 -69 143 -28 155 38 11 55 10 68 -3z m-790 -124 c37 -26 46 -52 27
-81 -18 -27 -76 -82 -87 -83 -8 0 -26 57 -29 90 -2 44 1 58 17 74 20 20 43 20
72 0z m946 -122 c14 -42 45 -134 70 -203 50 -141 76 -257 69 -309 -2 -19 -4
-61 -4 -94 0 -69 -7 -69 -13 0 -8 88 -55 250 -92 316 -19 34 -49 91 -65 125
-31 63 -31 63 -24 184 9 137 9 137 59 -19z m-251 46 c24 -35 61 -97 82 -138
44 -87 113 -219 144 -273 27 -48 27 -51 -5 -31 -24 17 -86 104 -173 247 -22
37 -41 69 -41 71 0 2 -18 35 -40 72 -42 71 -49 99 -27 107 6 3 13 6 14 6 1 1
22 -27 46 -61z m1040 56 c42 -4 74 -10 72 -15 -3 -4 -5 -204 -5 -444 l-1 -437
-46 28 c-48 28 -228 73 -295 74 -31 0 -38 4 -42 23 -3 12 -7 189 -10 394 -5
292 -3 372 7 376 18 8 232 8 320 1z m5239 -241 c6 -251 4 -257 -87 -398 -29
-44 -57 -88 -62 -98 -19 -37 -33 596 -14 646 7 17 26 29 73 45 34 12 68 21 74
22 8 0 13 -65 16 -217z m-3197 190 l47 -6 -3 -278 c-2 -154 -5 -279 -6 -279
-1 0 -24 13 -50 28 -76 44 -139 71 -206 89 -83 21 -262 21 -344 0 -88 -23
-220 -92 -270 -140 l-43 -41 -380 2 c-417 2 -412 1 -464 63 -65 76 -69 95 -74
326 -3 116 -2 219 1 227 6 14 97 16 875 16 478 0 891 -3 917 -7z m1963 -4 l82
1 0 -134 0 -134 -96 -128 c-53 -71 -101 -139 -107 -151 -6 -13 -13 -23 -16
-23 -4 0 -24 20 -44 45 -85 101 -256 209 -397 250 -118 35 -325 45 -463 24
-122 -19 -304 -101 -409 -183 -31 -25 -82 -76 -115 -115 l-58 -69 -109 -1
-108 -1 8 48 c8 48 11 159 13 424 l1 147 73 3 c39 2 430 2 867 0 437 -2 832
-3 878 -3z m610 -21 c55 -34 92 -101 92 -167 -1 -79 -26 -125 -111 -206 -106
-100 -296 -292 -430 -436 l-116 -123 -18 74 c-18 75 -51 151 -87 203 -18 25
-19 30 -5 45 8 9 35 45 58 78 69 97 188 252 199 259 6 3 10 1 10 -4 0 -6 5
-11 10 -11 6 0 10 13 10 29 0 44 16 78 71 152 40 54 63 74 111 99 77 38 153
41 206 8z m1112 -28 c26 -26 25 -65 -1 -91 -23 -23 -52 -20 -95 8 -31 20 -30
40 3 75 31 33 65 36 93 8z m-7355 -57 c25 -38 363 -399 390 -417 22 -14 22
-17 8 -48 -9 -18 -28 -43 -42 -55 l-27 -21 -253 220 -252 221 35 21 c19 11 51
40 71 64 20 23 40 42 45 42 4 0 16 -12 25 -27z m7192 -60 c16 -16 36 -32 46
-38 15 -9 12 -18 -31 -83 -26 -40 -73 -110 -105 -155 -32 -45 -95 -135 -140
-199 l-82 -118 -42 0 c-24 0 -43 2 -43 5 0 10 161 275 240 396 41 64 86 139
100 167 14 29 26 52 27 52 1 0 14 -12 30 -27z m-2198 -193 c297 -83 548 -358
607 -667 32 -167 7 -332 -79 -526 l-31 -69 -55 7 c-31 4 -57 8 -59 10 -2 2 13
35 32 74 45 89 85 225 92 316 7 82 -14 224 -45 306 -85 225 -318 412 -565 455
-139 25 -321 2 -430 -53 -132 -67 -231 -150 -304 -256 -104 -151 -137 -252
-135 -417 1 -197 60 -358 190 -523 74 -95 83 -133 33 -155 -28 -13 -31 -12
-62 24 -18 20 -46 51 -61 68 -50 55 -88 116 -133 210 -61 130 -77 204 -78 366
-1 115 2 145 22 205 35 108 116 263 175 335 106 130 278 249 412 285 142 39
345 40 474 5z m-1507 -182 c37 -14 93 -41 125 -59 76 -46 192 -162 227 -229
26 -51 27 -58 16 -99 l-11 -44 -24 51 c-66 144 -200 264 -351 317 -98 35 -232
35 -334 0 -94 -32 -152 -66 -218 -129 -67 -63 -84 -94 -69 -121 9 -18 9 -18
-5 -7 -14 11 -19 8 -36 -20 -34 -56 -53 -112 -47 -138 4 -17 3 -21 -4 -11 -13
20 -24 -80 -16 -149 14 -123 24 -180 32 -193 7 -12 -65 -3 -78 10 -14 14 -30
193 -23 257 8 88 39 196 79 279 47 99 150 200 261 256 108 55 138 61 284 57
104 -2 136 -7 192 -28z m1320 -10 c1 -7 2 -68 3 -136 l0 -124 36 -12 c20 -7
61 -28 90 -46 l53 -33 51 55 c66 70 137 128 160 128 22 0 55 -28 55 -46 0 -7
-29 -34 -64 -61 -66 -50 -146 -120 -146 -128 0 -2 11 -21 25 -41 14 -20 33
-61 42 -91 l17 -55 141 4 140 3 3 -52 3 -52 -36 -7 c-28 -5 -46 -2 -75 15 -28
15 -55 21 -103 21 l-65 0 -22 -55 c-12 -30 -35 -75 -51 -100 l-29 -46 27 -10
c27 -10 173 -154 173 -170 0 -11 -90 -23 -99 -13 -5 5 -33 36 -63 70 -30 33
-57 67 -60 74 -3 9 -17 6 -54 -13 -27 -14 -76 -33 -108 -42 l-58 -17 4 -64 3
-65 -30 7 c-44 9 -45 11 -45 68 l0 54 -37 7 c-21 4 -67 20 -102 37 l-64 30
-63 -68 c-38 -42 -84 -81 -119 -99 -55 -29 -57 -30 -71 -11 -8 11 -14 24 -14
30 0 9 96 105 159 159 18 15 42 27 52 27 24 0 24 4 -6 48 -14 20 -34 65 -46
100 l-21 64 -72 -6 c-39 -4 -104 -9 -143 -12 l-73 -6 0 45 c0 27 5 47 13 49 6
3 59 1 117 -4 159 -13 159 -13 180 52 10 30 27 72 38 93 12 21 18 45 15 53 -3
8 -29 30 -57 48 -74 48 -146 115 -146 136 0 33 12 50 34 50 38 0 109 -54 165
-123 29 -37 57 -67 62 -67 5 0 28 14 51 30 23 17 66 37 95 46 l53 15 0 128 c0
70 3 131 7 134 12 12 73 7 75 -5z m-152 -90 l-5 -92 -51 -20 c-28 -12 -58 -26
-65 -33 -12 -10 -22 -3 -53 35 -85 104 -77 121 84 178 99 36 96 39 90 -68z
m327 60 c34 -12 74 -37 97 -60 l39 -39 -48 -49 c-57 -58 -86 -63 -150 -27 -29
16 -40 29 -39 45 0 12 1 51 2 87 2 76 6 78 99 43z m-4430 -150 l102 -102 -18
-25 c-10 -14 -20 -32 -22 -39 -2 -7 -59 39 -133 110 l-128 122 22 18 c44 36
68 25 177 -84z m2706 93 c19 -2 4 -21 -17 -21 -13 0 -55 -10 -92 -22 -38 -12
-71 -22 -74 -23 -12 -4 -64 -26 -72 -32 -6 -3 -5 4 1 16 7 11 9 21 5 21 -3 0
-1 7 6 15 7 9 19 14 26 11 7 -3 18 2 25 10 7 9 23 14 36 11 12 -2 20 -1 17 4
-6 11 73 17 139 10z m-267 -76 c-3 -9 -10 -13 -16 -10 -6 4 -5 11 3 20 15 16
22 11 13 -10z m-685 -5 c89 -17 172 -63 245 -134 l67 -65 -8 -73 c-11 -96 -12
-250 -2 -314 8 -47 7 -52 -12 -57 -11 -2 -22 -2 -25 1 -3 3 -6 54 -6 113 0
127 -13 198 -46 256 -36 62 -81 103 -154 137 -61 29 -72 31 -185 31 -151 0
-192 -14 -264 -90 -74 -78 -114 -168 -119 -270 -5 -106 10 -185 52 -269 l35
-68 -22 -19 c-12 -10 -25 -18 -29 -19 -13 0 -79 86 -103 135 -35 73 -51 203
-36 301 42 286 308 461 612 404z m4216 -72 c-14 -35 -28 -71 -31 -80 -3 -10
-14 -18 -24 -18 -10 0 -24 -6 -31 -12 -20 -19 -7 33 24 97 55 114 107 125 62
13z m-3559 25 c0 -39 -16 -66 -35 -59 -11 4 -13 2 -9 -9 3 -10 -1 -15 -13 -15
-11 0 -21 -4 -23 -9 -1 -5 -9 -3 -15 4 -10 11 -10 17 2 29 8 8 15 17 15 21 0
4 7 13 15 21 11 11 15 12 15 3 0 -7 3 -9 8 -5 4 4 6 10 4 12 -3 5 21 33 29 34
4 0 7 -12 7 -27z m470 -19 c170 -83 239 -199 230 -383 -6 -107 -42 -186 -115
-251 -66 -58 -110 -78 -197 -92 -155 -24 -277 25 -358 143 -56 81 -73 138 -73
249 1 78 5 103 23 142 32 64 126 159 191 192 108 55 187 55 299 0z m-2075 -44
c17 -16 2 -44 -28 -52 -38 -11 -323 -14 -352 -4 -18 6 -23 15 -23 43 l0 35
198 -7 c108 -4 201 -11 205 -15z m2940 -69 c71 -73 72 -76 57 -131 l-10 -36
-92 8 c-121 11 -122 11 -114 50 8 39 74 178 85 178 4 0 38 -31 74 -69z m1062
-34 c14 -73 -35 -117 -129 -117 -35 0 -48 5 -56 19 -20 39 -12 69 28 98 20 15
52 40 71 57 l35 29 22 -27 c13 -14 26 -41 29 -59z m741 73 l174 0 0 -75 0 -75
-185 0 -185 0 0 28 c0 15 -3 51 -7 81 -6 49 -4 54 11 48 10 -4 96 -7 192 -7z
m831 -6 l53 -5 -7 -62 c-3 -34 -8 -64 -10 -67 -6 -6 -340 -6 -346 0 -2 3 -7
37 -11 76 l-7 72 138 -5 c76 -2 162 -6 190 -9z m-4771 -67 c6 -32 13 -60 16
-62 13 -13 42 27 47 66 5 38 9 44 33 47 41 5 158 -65 158 -95 0 -5 13 -24 29
-43 39 -48 58 -89 62 -130 3 -27 0 -34 -11 -31 -87 21 -110 10 -91 -43 11 -27
15 -30 64 -40 23 -5 27 -11 27 -41 0 -18 -4 -36 -9 -40 -5 -3 -58 -12 -118
-20 -59 -8 -126 -18 -148 -21 -22 -3 -71 -19 -109 -35 -82 -35 -91 -35 -133
-6 -64 43 -123 200 -109 289 12 74 61 153 123 200 70 53 100 68 133 65 21 -2
26 -9 36 -60z m-560 30 l27 -23 -36 -37 c-68 -67 -253 -102 -500 -94 -174 5
-238 17 -334 64 -62 31 -71 43 -55 79 15 32 45 31 125 -7 90 -42 173 -53 357
-46 173 7 252 22 308 60 47 32 74 33 108 4z m4409 -197 c87 -5 192 -6 250 -1
55 4 103 5 106 2 4 -3 9 -22 12 -42 l5 -36 -71 -23 c-211 -68 -276 -73 -438
-34 -114 27 -119 30 -119 96 0 53 9 61 59 54 25 -3 114 -10 196 -16z m893 5
l192 0 0 -36 c0 -36 -1 -38 -62 -59 -35 -13 -92 -33 -128 -46 -86 -31 -192
-31 -325 0 l-100 23 -3 68 -3 68 118 -9 c65 -5 205 -9 311 -9z m-6017 -26
l107 -30 196 16 c108 8 228 22 267 30 39 8 85 15 102 14 30 -1 28 -2 -18 -18
-27 -10 -57 -20 -65 -24 -8 -3 -69 -23 -135 -44 -163 -51 -251 -52 -415 -5
-131 39 -176 57 -184 78 -8 21 24 18 145 -17z m-41 -114 c36 -12 151 -39 255
-59 105 -21 214 -42 243 -47 28 -6 52 -15 52 -20 0 -5 -2 -9 -4 -9 -3 0 -58
-12 -123 -26 -137 -30 -218 -29 -347 6 -147 39 -176 62 -176 138 0 48 2 53 18
47 9 -4 46 -18 82 -30z m738 -12 l-3 -48 -45 -3 c-40 -3 -125 9 -185 26 -18 5
-18 6 5 13 14 4 63 18 110 32 121 37 122 37 118 -20z m4798 -59 c-3 -26 -6
-54 -6 -63 0 -19 -11 -24 -194 -86 l-128 -45 -62 20 c-33 10 -100 30 -148 45
l-88 26 0 69 c0 63 2 70 19 70 25 0 143 -27 204 -47 72 -23 199 -13 307 25 47
17 89 31 94 31 5 1 6 -20 2 -45z m715 14 c-1 -5 -1 -22 -1 -39 0 -31 -1 -31
-37 -24 -21 4 -40 10 -43 15 -3 4 -18 5 -35 3 -16 -2 -37 -5 -45 -5 -8 0 -21
-6 -29 -12 -11 -8 -13 -8 -7 1 5 10 -1 11 -26 6 -39 -7 -49 -13 -23 -13 17 0
75 -55 75 -70 0 -4 -42 -17 -92 -29 -90 -22 -95 -22 -168 -6 -41 9 -98 21
-127 27 -57 12 -63 20 -63 101 0 57 -2 57 153 21 143 -33 197 -32 332 4 110
30 137 34 136 20z m-2746 -55 c4 -21 7 -43 8 -49 2 -15 -132 -126 -147 -122
-18 6 -66 114 -69 155 l-2 38 70 6 c143 11 133 13 140 -28z m1025 2 c0 -8 -9
-40 -21 -71 -18 -48 -24 -55 -42 -50 -12 3 -27 0 -34 -6 -7 -6 -13 -7 -13 -2
0 5 -5 2 -10 -6 -8 -12 -10 -10 -10 9 0 20 2 21 15 11 10 -9 15 -9 15 -1 0 6
-5 11 -11 11 -5 0 -7 5 -4 10 9 15 -14 40 -36 40 -12 0 -19 7 -19 20 0 13 7
20 19 20 10 0 24 7 31 15 17 21 120 21 120 0z m-1540 -54 c16 -30 -1 -60 -77
-138 -89 -91 -207 -159 -311 -178 -27 -5 -34 -4 -26 5 6 6 20 12 32 13 11 0
19 4 16 9 -4 6 23 26 36 26 23 1 59 16 54 23 -3 5 4 9 16 9 12 0 18 5 15 10
-3 6 4 14 17 19 50 19 128 92 154 144 42 83 55 93 74 58z m-2249 -33 l-6 -42
-85 -27 c-173 -55 -279 -81 -417 -101 -158 -24 -220 -18 -285 25 -32 22 -33
25 -36 100 -2 42 -1 77 1 77 3 0 29 -11 58 -24 68 -31 238 -66 321 -66 61 0
266 47 363 83 22 8 52 15 66 16 24 1 25 -1 20 -41z m3639 1 c0 -5 5 -9 11 -9
5 0 7 5 4 10 -3 6 -1 10 4 10 15 0 13 -11 -4 -34 -8 -11 -15 -15 -15 -8 0 6
-10 20 -21 31 l-21 20 21 -6 c11 -3 21 -9 21 -14z m-2450 -52 c106 -27 207
-70 272 -115 56 -38 224 -191 245 -223 9 -14 10 -19 3 -11 -34 30 -54 9 -144
-150 -25 -44 -15 -71 26 -76 30 -4 72 44 123 140 l32 60 23 -34 c13 -18 45
-56 72 -85 26 -28 48 -56 48 -61 0 -15 -22 -30 -50 -34 -39 -5 -60 -58 -60
-150 l0 -78 -45 0 -45 0 0 79 0 79 -37 23 c-31 19 -51 23 -137 23 -93 1 -107
4 -171 35 -117 55 -258 100 -342 107 -97 8 -91 -4 8 -18 84 -11 194 -45 264
-81 l48 -24 -53 -7 c-39 -5 -60 -15 -81 -36 -26 -26 -29 -35 -29 -94 0 -75 -6
-80 -95 -74 l-49 3 -41 75 c-45 81 -102 150 -123 150 -9 0 -12 6 -8 16 4 10 1
14 -6 12 -7 -3 -37 6 -66 20 -160 73 -337 68 -478 -14 -53 -30 -141 -131 -174
-198 l-25 -51 -112 -3 -111 -3 20 68 c50 170 179 369 320 493 147 130 262 190
463 241 102 27 121 28 265 25 123 -3 175 -9 250 -29z m3130 -35 c160 -51 201
-58 232 -38 19 13 82 34 221 73 15 5 17 -3 17 -63 l0 -69 -153 -43 c-83 -23
-167 -42 -185 -42 -55 0 -241 50 -269 73 -8 6 -13 36 -13 83 0 54 3 72 13 70
6 -3 68 -22 137 -44z m1190 -17 c0 -47 -8 -64 -23 -52 -2 1 -11 -4 -20 -11 -9
-8 -21 -10 -28 -6 -6 4 -44 7 -84 8 -72 2 -73 1 -63 -20 9 -19 17 -22 47 -18
l36 5 -26 -15 c-37 -21 -167 -56 -209 -56 -45 0 -216 44 -235 60 -19 15 -22
150 -4 150 7 0 55 -14 108 -31 122 -39 294 -58 276 -30 -2 5 23 16 58 24 34 9
80 23 102 31 63 23 65 22 65 -39z m-5512 -67 c-3 -31 -7 -34 -83 -61 -44 -15
-105 -38 -136 -52 -34 -15 -75 -25 -103 -25 -57 0 -105 23 -102 47 2 14 33 26
137 54 74 20 157 43 184 51 28 9 63 16 78 17 26 1 28 -2 25 -31z m3414 -17
c13 7 23 7 32 0 11 -9 9 -23 -8 -74 l-22 -62 -61 -3 c-56 -3 -61 -1 -67 20
-17 64 0 105 49 114 16 3 32 7 34 10 3 2 9 0 14 -5 7 -7 17 -6 29 0z m-4076
-101 c118 -49 211 -73 359 -95 102 -14 129 -26 122 -50 -11 -35 -192 -55 -284
-31 -107 28 -337 105 -356 118 -16 12 -17 22 -12 75 l7 61 32 -19 c18 -10 77
-37 132 -59z m-266 -37 c0 -144 -13 -225 -50 -310 -16 -39 -48 -138 -71 -220
-22 -81 -67 -220 -99 -308 -33 -88 -64 -181 -71 -207 -28 -117 38 -199 181
-226 81 -15 6498 -16 6584 -2 79 14 160 60 182 102 23 44 19 105 -11 190 -69
190 -78 241 -90 488 -6 134 -13 150 -62 150 -45 0 -56 69 -26 173 11 39 19 54
24 45 11 -17 119 -340 163 -488 19 -63 55 -182 80 -264 l45 -148 -6 -217 c-4
-160 -9 -224 -20 -248 -21 -46 -86 -90 -147 -102 -28 -5 -181 -8 -341 -6 -159
1 -351 3 -425 4 l-136 1 4 93 c4 82 2 94 -16 110 -11 10 -31 19 -46 20 l-26 2
-4 -327 -4 -327 -28 -51 c-53 -98 -148 -154 -282 -166 -178 -16 -341 71 -380
204 -10 34 -15 228 -13 510 1 88 4 112 15 112 16 0 42 28 33 36 -10 11 -118 5
-133 -7 -10 -8 -14 -36 -14 -110 l0 -99 -557 -2 c-307 -2 -583 -2 -614 0 l-55
4 4 82 c4 67 1 84 -12 95 -19 16 -287 20 -595 11 -205 -7 -201 -4 -201 -117
l0 -73 -634 0 -633 0 1 99 c1 55 -3 104 -9 110 -5 5 -29 13 -52 17 l-42 6 -3
-333 -3 -334 -30 -54 c-32 -58 -82 -101 -155 -134 -35 -16 -66 -20 -145 -20
-135 -1 -198 23 -277 103 -84 85 -92 122 -84 359 11 319 15 351 42 363 13 6
24 17 24 25 0 16 -116 19 -140 3 -11 -7 -16 -34 -18 -110 l-4 -100 -291 -2
c-625 -6 -610 -7 -691 73 l-49 49 8 123 c5 67 9 169 10 227 1 101 4 114 74
335 40 127 98 304 130 395 32 91 85 240 117 333 32 92 62 167 66 167 5 0 8
-48 8 -107z m5212 32 c116 -40 195 -52 253 -37 80 21 221 59 240 65 19 6 20 3
17 -57 -4 -72 -5 -73 -113 -106 -46 -14 -82 -16 -195 -13 -143 5 -251 -7 -266
-30 -4 -6 -8 -37 -8 -67 0 -68 -15 -97 -23 -48 -9 51 -21 328 -14 328 4 0 53
-16 109 -35z m792 -35 c65 -23 100 -31 128 -27 34 5 38 3 33 -13 -3 -10 -1
-21 5 -25 5 -3 10 -13 10 -21 0 -11 -21 -14 -108 -14 -88 0 -115 -4 -147 -20
-26 -13 -42 -17 -49 -10 -6 6 -18 10 -28 10 -16 0 -18 10 -18 90 l0 89 43 -14
c23 -7 82 -28 131 -45z m436 -12 c0 -95 -6 -117 -30 -111 -19 5 -59 43 -46 43
4 0 0 7 -8 16 -14 14 -14 18 -1 44 8 16 15 31 15 34 0 8 -44 2 -51 -7 -3 -4
-14 -5 -24 -1 -13 5 3 14 56 29 41 13 77 23 82 24 4 0 7 -32 7 -71z m-1605 48
c1 0 -2 -35 -5 -76 l-5 -75 -173 -3 -172 -2 -10 25 c-6 15 -10 53 -10 85 l0
58 188 -5 c103 -3 187 -6 187 -7z m-760 -86 l0 -75 -177 -3 c-98 -1 -178 -1
-178 0 -1 2 -3 38 -7 81 l-6 78 184 -3 184 -3 0 -75z m-3205 49 c0 -11 4 -17
10 -14 6 3 7 -1 4 -9 -3 -9 -9 -16 -13 -16 -17 1 -124 29 -129 34 -5 6 46 11
81 8 9 -1 17 3 17 8 0 6 7 10 15 10 8 0 15 -9 15 -21z m3500 -52 c0 -20 -102
-59 -134 -51 -38 9 -32 24 12 24 20 1 53 9 72 20 42 23 50 24 50 7z m-4087
-103 c73 -24 112 -41 104 -45 -7 -5 -45 -13 -83 -19 -115 -18 -131 -26 -163
-82 -16 -27 -31 -46 -34 -41 -3 5 -6 64 -6 131 l1 121 31 -14 c18 -8 85 -31
150 -51z m5451 -71 l6 -83 -30 0 -30 0 0 75 c0 69 2 76 23 84 12 5 23 8 23 7
1 0 4 -38 8 -83z m135 68 c10 -6 16 -33 19 -75 4 -62 3 -66 -16 -66 -32 0 -45
34 -37 96 7 56 10 60 34 45z m-1365 -41 c90 -12 205 -20 292 -20 121 0 144 -2
144 -15 0 -8 -6 -15 -13 -15 -7 0 -21 -11 -31 -25 -10 -14 -26 -25 -34 -25 -8
0 -32 -16 -53 -35 -21 -19 -50 -37 -64 -41 -14 -3 -25 -10 -25 -15 0 -12 -124
-3 -225 15 -44 9 -97 16 -118 18 -49 3 -57 18 -57 107 0 84 -20 78 184 51z
m-1159 -2 c2 -2 1 -35 -2 -74 l-5 -71 -82 -7 c-44 -3 -125 -6 -178 -6 -82 0
-99 3 -107 18 -7 14 -16 118 -12 145 1 7 379 3 386 -5z m-2551 -73 c-26 -59
-51 -84 -77 -77 -4 1 -20 3 -35 4 -15 1 -29 6 -32 10 -3 4 -60 14 -125 23
-145 19 -161 23 -146 38 7 7 65 15 134 19 80 4 153 15 212 31 50 14 92 23 94
21 2 -2 -9 -33 -25 -69z m3171 60 l240 -6 3 -47 3 -47 -63 -27 c-108 -46 -177
-62 -280 -62 -53 -1 -94 -4 -92 -7 2 -4 -2 -9 -10 -12 -8 -3 -13 1 -12 10 1
11 -24 24 -88 44 -49 15 -92 32 -95 37 -3 6 -4 38 -3 72 l4 62 76 -6 c43 -3
185 -9 317 -11z m1622 -9 c0 0 -1 -32 -4 -70 l-6 -68 -168 4 c-93 2 -170 6
-173 9 -2 2 -6 32 -8 66 -3 50 -1 63 11 67 13 4 343 -3 348 -8z m746 7 c2 -5
2 -38 -1 -75 l-4 -68 -163 0 c-90 0 -170 3 -179 6 -12 5 -16 21 -16 75 l0 69
179 0 c99 0 182 -3 184 -7z m-4814 -73 c114 -19 222 -94 271 -189 l20 -41
-345 0 c-277 0 -345 3 -345 13 0 27 59 105 106 139 58 43 113 67 174 78 25 4
47 8 50 9 3 0 34 -4 69 -9z m-1068 -106 l116 -6 -1 -77 -1 -76 -235 -2 -235
-2 37 34 c47 43 58 65 58 111 l0 36 73 -6 c39 -3 124 -8 188 -12z m3903 7 c10
-16 124 -52 261 -81 74 -17 137 -30 139 -30 5 0 66 -101 66 -110 0 -17 -66
-30 -155 -30 -89 0 -150 13 -300 62 l-40 13 -3 60 c-5 92 11 150 32 116z
m-696 -31 c29 -7 59 -9 67 -6 8 3 15 2 15 -3 0 -11 70 -8 70 4 0 6 3 6 8 0 4
-6 27 -11 52 -12 152 -4 193 -1 262 15 l77 19 7 -53 c6 -54 1 -108 -15 -132
-4 -7 -44 -23 -87 -35 -64 -17 -106 -21 -219 -21 -128 0 -148 3 -230 30 l-90
30 -3 93 c-3 85 -1 92 15 88 10 -3 42 -11 71 -17z m-650 -20 c55 -11 143 -21
195 -22 l96 -2 3 -82 3 -83 -70 -6 c-81 -8 -191 5 -329 36 l-96 22 0 79 0 78
49 0 c27 0 94 -9 149 -20z m2465 4 l237 -6 0 -32 c0 -62 -12 -106 -29 -106
-14 0 -14 -2 -1 -10 12 -8 12 -10 -5 -10 -11 0 -31 -3 -45 -7 -22 -6 -24 -5
-11 10 9 12 10 17 2 17 -8 0 -10 8 -6 20 4 11 2 20 -4 20 -6 0 -8 8 -4 18 3 9
3 14 0 11 -4 -3 -15 -30 -26 -60 l-18 -54 -59 -8 c-36 -5 -94 -4 -149 3 -97
13 -271 46 -286 56 -5 3 -9 39 -9 81 l0 75 88 -6 c48 -3 194 -9 325 -12z
m-2945 -64 l-3 -65 -127 -3 c-70 -1 -149 1 -175 5 l-48 8 -3 62 -3 61 181 -1
181 -2 -3 -65z m3932 7 c0 -41 -22 -72 -44 -64 -7 3 -18 1 -23 -4 -21 -21
-202 -30 -380 -19 -96 5 -181 10 -189 10 -10 0 -14 13 -14 44 0 79 -25 73 331
72 l319 -1 0 -38z m-5035 -177 l-7 -70 36 0 c41 0 44 4 49 80 l4 55 62 3 61 3
0 -64 c0 -68 6 -77 51 -77 19 0 22 16 23 108 0 22 2 23 91 20 l90 -3 3 -92 3
-91 -53 -7 c-29 -3 -282 -5 -562 -3 l-509 3 -1 98 -1 97 82 0 82 0 3 -62 3
-63 38 -3 37 -3 0 60 0 61 99 0 c55 0 106 -3 115 -6 12 -4 16 -20 16 -56 l0
-49 33 3 32 3 -3 57 c-3 63 -4 63 92 67 l38 1 -7 -70z m852 19 c116 -6 259
-10 317 -7 123 4 144 -12 44 -32 -84 -16 -119 -32 -113 -48 3 -8 5 -27 5 -43
0 -21 5 -29 18 -30 44 -2 -50 -18 -141 -25 -101 -6 -231 4 -349 28 l-58 12 0
84 0 84 33 -6 c17 -3 127 -11 244 -17z m2165 -9 c80 -29 235 -65 308 -72 38
-3 60 -17 53 -34 -2 -5 8 -23 22 -40 l25 -29 -68 -23 c-88 -31 -174 -25 -337
21 l-120 34 -3 87 c-3 103 -5 102 120 56z m-4324 6 c26 -3 69 0 95 6 26 5 59
7 72 4 21 -5 24 -12 27 -63 2 -42 7 -59 18 -60 28 -5 42 14 48 68 l7 54 60 -4
c70 -4 75 -6 75 -32 0 -10 5 -19 10 -19 6 0 10 -9 10 -20 0 -20 11 -26 23 -13
4 3 18 8 32 9 19 2 26 -3 31 -22 7 -26 24 -33 24 -9 0 8 -4 15 -10 15 -5 0
-10 7 -10 15 0 18 20 20 21 3 1 -7 5 -2 9 12 7 19 8 10 7 -32 l-2 -56 -40 -6
c-65 -10 -536 -17 -590 -9 l-50 8 -3 81 -3 82 46 -4 c25 -2 66 -6 93 -8z
m3622 -12 c22 3 30 2 21 -3 -9 -6 -2 -9 22 -9 61 0 161 -14 173 -23 15 -12
137 13 198 39 24 11 47 18 50 14 3 -3 6 -38 6 -78 l0 -74 -37 -18 c-21 -11
-76 -32 -122 -47 -73 -24 -94 -27 -160 -22 -64 5 -278 61 -312 82 -5 4 -9 41
-9 84 l0 79 68 -15 c37 -8 83 -12 102 -9z m1500 -13 c174 -42 227 -46 340 -27
52 9 103 19 113 22 16 5 18 -1 15 -61 l-3 -68 -90 -23 c-49 -13 -126 -26 -170
-30 -72 -6 -96 -3 -233 32 l-152 38 0 71 c0 40 3 75 6 78 8 7 4 8 174 -32z
m986 26 c67 -1 119 -4 115 -7 -3 -3 -6 -25 -6 -50 l0 -45 -260 0 -260 0 -3 58
-3 59 148 -6 c81 -4 203 -8 269 -9z m-3241 -27 c61 -17 143 -33 183 -37 71 -6
109 -23 96 -44 -3 -6 2 -21 10 -35 24 -36 7 -59 -55 -74 -61 -15 -101 -10
-274 33 l-130 32 -3 78 -3 77 33 0 c18 0 83 -14 143 -30z m3313 -156 c161 -6
174 -9 154 -41 -4 -7 -64 -22 -132 -35 -130 -24 -360 -31 -462 -14 l-48 7 0
50 0 50 163 -6 c89 -3 235 -8 325 -11z m-2363 -111 c56 -5 132 13 255 61 13 5
15 -7 16 -72 l0 -77 -102 -38 c-56 -20 -125 -42 -153 -49 -59 -13 -91 -8 -268
48 l-113 35 0 88 0 88 153 -39 c83 -21 179 -41 212 -45z m-1806 57 c154 -30
285 -35 428 -16 146 19 133 19 133 1 0 -9 -6 -12 -17 -8 -10 3 -15 3 -11 -2 8
-8 -15 -35 -31 -35 -10 0 -24 -33 -25 -59 -2 -40 -300 -63 -474 -37 -140 21
-139 20 -136 103 1 37 2 69 3 71 2 5 30 1 130 -18z m2311 -11 c107 -34 269
-61 339 -57 33 2 45 -1 44 -9 -2 -7 7 -13 20 -14 21 0 21 -1 2 -9 l-20 -9 20
0 c15 -1 17 -3 6 -10 -10 -6 -10 -10 -1 -16 23 -14 -45 -61 -116 -81 -64 -17
-72 -17 -158 -1 -50 9 -128 26 -173 38 l-83 22 0 89 c0 64 3 88 13 88 6 0 55
-14 107 -31z m723 10 c173 -59 257 -67 392 -40 55 11 110 23 122 27 20 6 21 2
25 -61 2 -40 -1 -69 -7 -70 -5 -2 -56 -17 -111 -34 -56 -17 -123 -31 -150 -31
-26 0 -121 14 -211 32 l-163 32 0 83 c0 97 0 97 103 62z m-2190 -23 c73 -19
162 -37 199 -41 37 -4 65 -11 62 -16 -3 -5 2 -9 11 -9 9 0 13 -5 10 -10 -4 -6
-2 -16 4 -23 10 -12 9 -63 -2 -73 -33 -34 -218 -19 -394 32 l-53 15 0 79 c0
66 3 80 16 80 9 0 75 -15 147 -34z m-2301 -41 c-2 -33 -5 -61 -6 -61 -11 -11
-662 -22 -672 -11 -8 7 -17 105 -12 119 4 10 75 13 350 13 l344 0 -4 -60z
m253 -37 c0 -57 2 -125 5 -153 l4 -50 -74 0 c-90 0 -88 -5 -89 178 l-1 127 78
0 77 0 0 -102z m217 -5 c2 -60 2 -129 0 -155 l-4 -48 -64 0 -64 0 0 43 c0 23
3 93 7 155 l6 112 57 0 57 0 5 -107z m270 -25 c3 -91 8 -133 16 -136 7 -2 12
-10 12 -18 0 -11 -21 -14 -105 -14 l-105 0 0 83 c0 45 -3 112 -7 150 l-6 67
95 0 96 0 4 -132z m181 20 c4 -62 7 -130 7 -150 l0 -38 -68 0 c-38 0 -71 2
-74 5 -6 7 14 80 25 91 4 4 7 52 7 106 l0 98 48 0 49 0 6 -112z m171 4 c1 -91
3 -105 21 -118 18 -14 20 -12 32 22 7 21 16 75 20 121 5 72 8 83 24 83 20 0
22 -21 24 -245 l0 -46 -115 -2 c-110 -2 -115 -1 -112 18 5 30 21 216 21 248 1
27 3 28 43 25 l41 -3 1 -103z m4437 -2 c168 0 219 -3 234 -14 18 -13 17 -15
-20 -25 -22 -6 -74 -20 -115 -32 -85 -24 -287 -36 -413 -24 l-77 7 0 52 c0 29
2 55 5 58 3 3 43 -1 88 -8 50 -8 166 -14 298 -14z m-4044 -119 c161 -41 331
-39 511 6 22 5 23 3 20 -33 l-3 -39 -347 -3 -348 -4 0 51 c0 49 1 51 28 51 15
0 77 -13 139 -29z m1565 -18 c76 -26 138 -51 138 -56 0 -6 -22 -7 -52 -3 -29
3 -97 6 -150 6 l-98 0 0 43 c0 40 5 57 18 57 3 0 68 -21 144 -47z m-767 -3
c74 -22 141 -40 149 -40 9 0 16 -4 16 -10 0 -6 -58 -7 -152 -4 l-153 5 -3 44
c-2 25 0 45 3 45 4 0 66 -18 140 -40z m1255 -5 l0 -45 -162 1 c-137 1 -154 3
-108 11 65 11 208 53 230 68 30 20 40 11 40 -35z m248 -1 c45 -19 90 -34 100
-34 9 0 24 -5 32 -10 10 -7 -31 -9 -127 -8 l-143 3 0 41 c0 65 -1 65 138 8z
m707 21 c44 -13 98 -31 120 -39 22 -8 56 -15 75 -16 19 0 42 -5 50 -10 10 -7
-40 -10 -162 -8 l-178 3 0 32 c0 17 -3 38 -6 47 -8 21 6 20 101 -9z m-4510 -6
c11 -4 15 -8 8 -8 -7 -1 -10 -8 -7 -16 4 -8 2 -15 -2 -16 -75 -10 -632 -32
-647 -26 -12 5 -17 18 -17 47 l0 41 323 -7 c177 -4 331 -10 342 -15z m5360
-29 c139 -11 180 -19 158 -33 -5 -3 -88 -7 -184 -8 l-174 -2 -3 33 c-3 30 -2
32 25 26 15 -3 96 -10 178 -16z m-372 -4 c-15 -9 -11 -12 27 -17 30 -3 2 -7
-83 -10 -70 -2 -127 -1 -127 4 0 4 12 7 28 8 15 0 47 6 72 13 25 7 58 13 73
13 26 0 27 -1 10 -11z m-2643 -495 l5 -163 34 -28 c56 -47 168 -64 234 -36 18
7 43 26 57 40 24 27 25 33 28 192 l3 164 66 0 66 0 -8 -160 c-8 -185 -14 -219
-46 -258 -69 -83 -127 -105 -279 -106 -117 -1 -176 17 -226 71 -58 62 -64 88
-64 272 0 192 -5 180 85 177 l40 -1 5 -164z m258 145 c9 -46 -10 -247 -25
-261 -20 -21 -86 -19 -105 3 -23 25 -26 46 -30 162 l-3 105 40 6 c74 12 119 6
123 -15z m-3453 -181 l60 -4 5 -508 c5 -498 5 -509 27 -563 30 -72 50 -102
118 -171 61 -62 154 -116 250 -146 58 -17 171 -18 2920 -18 l2860 0 80 27
c163 55 276 161 334 311 14 36 17 117 21 554 3 281 7 513 10 516 3 2 42 8 88
11 l82 7 0 -483 c0 -266 -5 -516 -10 -557 -31 -239 -189 -421 -439 -509 l-76
-26 -465 -6 c-256 -3 -1565 -5 -2910 -4 -1837 1 -2460 5 -2505 13 -168 34
-267 82 -365 181 -127 127 -184 252 -201 440 -8 98 -9 600 -1 843 l3 109 27
-7 c15 -4 54 -9 87 -10z m815 -51 l0 -67 -67 6 c-38 4 -186 7 -330 7 l-263 0
0 60 0 60 330 0 330 0 0 -66z m2160 17 c0 -89 66 -81 -641 -81 l-629 0 0 54 0
55 53 5 c105 12 142 13 675 14 l542 2 0 -49z m2035 12 c-2 -21 -4 -50 -4 -65
l-1 -27 -530 -1 c-291 0 -533 0 -537 -1 -5 -1 -41 -1 -81 0 l-73 1 3 58 3 57
85 3 c47 1 96 4 110 6 14 2 251 4 527 5 l502 1 -4 -37z m1575 -25 l0 -63 -232
0 c-128 0 -279 -4 -335 -9 l-102 -9 -5 34 c-2 19 -4 48 -3 64 2 30 3 30 72 36
39 3 190 6 338 7 l267 2 0 -62z m-5903 -128 l133 0 0 -65 0 -65 -330 0 -330 0
0 72 0 71 197 -6 c108 -4 256 -7 330 -7z m2084 2 c206 -2 207 -2 213 -25 3
-12 21 -41 41 -64 l35 -41 -77 -8 c-43 -4 -152 -4 -244 -1 l-165 5 -31 29
c-76 71 -241 70 -347 -2 -35 -24 -44 -25 -170 -25 -73 0 -174 3 -224 6 l-92 7
0 57 c0 31 2 59 4 61 4 4 681 5 1057 1z m2237 -62 l-3 -65 -218 -3 -219 -2
-36 28 c-58 46 -76 52 -149 52 -87 0 -135 -14 -176 -50 l-33 -29 -225 -3 -224
-3 35 71 35 70 608 0 608 -1 -3 -65z m1580 0 l-3 -65 -165 -3 c-91 -2 -243 0
-337 3 l-173 7 0 64 0 65 340 -3 341 -3 -3 -65z m-2113 -100 c51 -43 44 -315
-11 -428 -56 -114 -229 -204 -467 -242 -238 -38 -901 -53 -1122 -25 -247 31
-401 82 -510 171 -107 89 -135 160 -135 350 0 156 10 170 127 181 78 7 93 -4
93 -72 0 -27 11 -64 33 -106 51 -102 156 -173 307 -209 88 -21 559 -34 796
-21 255 13 364 29 474 72 144 55 201 128 216 275 6 53 10 64 28 68 38 8 155
-1 171 -14z m-519 -40 l234 0 0 -49 c0 -50 -12 -72 -48 -89 -22 -10 -1381 2
-1404 12 -10 5 -18 14 -18 21 0 7 -7 15 -15 19 -8 3 -12 12 -9 20 3 8 -2 26
-11 40 l-17 26 231 0 c231 0 232 0 294 -27 57 -26 72 -28 187 -27 112 0 131 3
185 26 77 33 94 37 129 32 16 -2 134 -4 262 -4z m1069 -17 c10 -16 36 -50 59
-77 l41 -49 -254 6 c-140 3 -255 8 -256 9 -1 2 -5 31 -7 65 l-4 63 195 3 c108
1 199 3 202 5 4 1 15 -10 24 -25z m1247 15 l318 -3 0 -67 0 -68 -262 0 c-145
0 -320 3 -390 7 l-127 6 25 30 c14 16 34 47 45 69 18 34 23 39 47 34 15 -3
170 -7 344 -8z m-5424 -30 c12 -18 35 -50 52 -70 l32 -38 -386 0 -386 0 0 70
0 70 334 0 334 0 20 -32z m1298 1 c-3 -17 -6 -50 -6 -72 l0 -40 -252 6 c-139
4 -259 7 -267 7 -8 0 -2 13 16 33 16 18 35 47 42 65 l13 32 230 0 231 0 -7
-31z m473 -21 c1 -29 2 -61 2 -71 0 -10 5 -15 11 -11 7 4 8 2 4 -4 -20 -32
-71 12 -81 70 -10 51 -1 68 34 68 28 0 29 -1 30 -52z m2624 -180 c71 -33 73
-33 222 -32 131 1 157 3 210 24 65 25 223 41 195 19 -12 -8 -10 -9 10 -3 14 5
179 10 368 11 l342 4 0 -71 0 -70 -995 0 -995 0 7 63 c3 34 7 63 8 65 1 1 121
6 266 11 145 4 270 9 277 9 8 1 46 -13 85 -30z m-4160 -5 c57 -26 72 -28 192
-27 110 0 142 4 210 25 77 24 89 25 362 24 154 0 283 -2 286 -5 2 -3 7 -33 9
-67 l4 -63 -993 0 -993 0 0 70 0 70 430 0 431 0 62 -27z m2900 13 c-9 -5 -55
-15 -102 -23 -120 -20 -897 -30 -1012 -14 -89 14 -132 29 -122 44 3 6 237 8
628 6 366 -3 617 -8 608 -13z m-1798 -216 c8 -16 37 -50 62 -75 l48 -45 -1068
0 -1067 0 0 70 0 70 998 3 c548 1 1000 3 1004 5 4 1 14 -11 23 -28z m3809 20
l591 0 0 -70 0 -70 -941 0 c-517 0 -995 3 -1061 6 l-121 7 46 37 c26 20 53 49
61 63 l14 27 381 3 c210 2 394 2 410 0 16 -2 295 -3 620 -3z m-3634 -210 c-12
-8 -11 -10 5 -10 11 0 55 -13 96 -29 42 -16 129 -42 195 -58 l119 -28 550 0
550 1 158 27 c144 26 260 55 290 74 7 4 19 10 27 12 8 3 513 7 1122 8 l1107 3
-12 -27 c-7 -16 -23 -47 -35 -70 l-22 -43 -1388 -2 c-763 -1 -2172 0 -3132 1
-1579 3 -1746 5 -1755 19 -20 32 -65 113 -65 117 0 3 492 6 1093 8 600 1 1097
3 1102 4 6 2 3 -2 -5 -7z m2230 -221 l1845 2 -39 -22 c-48 -26 -150 -61 -191
-65 -86 -9 -5543 -13 -5617 -5 -89 11 -197 42 -238 69 -24 17 -22 17 90 23 63
3 608 4 1210 1 602 -3 1925 -4 2940 -3z"/>
<path d="M6075 8176 c-112 -37 -219 -119 -280 -216 -69 -109 -84 -258 -41
-395 25 -78 59 -128 139 -204 177 -170 476 -153 663 36 49 50 100 163 115 251
34 204 -74 411 -261 501 -70 34 -82 36 -185 38 -71 2 -124 -2 -150 -11z m282
-98 c145 -68 247 -256 222 -408 -13 -82 -69 -188 -124 -233 -99 -83 -242 -121
-344 -91 -159 45 -255 149 -282 302 -13 72 5 183 42 260 42 85 156 172 251
192 66 13 184 2 235 -22z"/>
<path d="M6170 8013 c-86 -27 -118 -45 -158 -87 -172 -177 -101 -433 134 -486
27 -6 52 -16 56 -23 6 -9 8 -9 8 1 0 6 10 12 23 12 37 0 121 45 162 86 21 22
51 67 68 102 26 56 29 71 24 125 -9 100 -25 138 -76 188 -33 32 -68 53 -120
72 -39 15 -73 26 -74 26 -1 -1 -22 -8 -47 -16z m123 -96 c92 -39 143 -185 98
-282 -50 -108 -170 -154 -271 -102 -160 80 -157 301 5 387 45 24 106 23 168
-3z"/>
<path d="M6137 7782 c-9 -10 -19 -32 -23 -49 -5 -25 0 -37 26 -67 49 -55 108
-46 136 19 16 38 6 79 -24 101 -26 20 -96 17 -115 -4z"/>
<path d="M6202 7380 c0 -14 2 -19 5 -12 2 6 2 18 0 25 -3 6 -5 1 -5 -13z"/>
<path d="M4163 8009 c-44 -13 -83 -62 -83 -106 0 -27 8 -43 34 -69 40 -40 81
-45 131 -14 106 66 38 223 -82 189z"/>
<path d="M4635 8003 c-90 -19 -126 -104 -69 -164 50 -53 118 -47 182 14 37 35
38 42 16 97 -13 32 -23 42 -53 50 -37 10 -43 11 -76 3z"/>
<path d="M5355 8003 c-32 -8 -64 -44 -71 -78 -12 -64 45 -125 116 -125 103 0
148 104 76 176 -34 34 -64 41 -121 27z"/>
<path d="M4959 7985 c-32 -17 -54 -66 -45 -101 4 -15 20 -40 37 -56 26 -26 34
-29 67 -23 45 8 76 27 97 59 21 31 5 98 -28 121 -27 19 -93 19 -128 0z"/>
<path d="M4014 7587 c-36 -32 -36 -83 1 -114 35 -31 73 -29 107 4 36 34 37 75
3 108 -31 32 -75 32 -111 2z"/>
<path d="M6122 7076 c-86 -28 -180 -121 -202 -201 -17 -59 -9 -189 14 -233 28
-53 86 -112 140 -140 45 -24 62 -27 151 -27 85 0 106 3 143 23 69 37 117 87
147 153 24 55 27 71 23 138 -3 46 -13 94 -25 123 -25 56 -88 119 -149 148 -57
28 -181 36 -242 16z m221 -120 c38 -25 51 -41 68 -86 31 -82 33 -104 14 -159
-21 -63 -47 -96 -96 -121 -54 -28 -85 -26 -91 5 -3 13 -1 22 3 19 5 -3 9 -12
9 -20 0 -19 17 -18 29 4 7 12 10 13 11 3 0 -9 7 -6 19 8 12 14 25 20 33 15 7
-4 10 -4 6 1 -4 4 6 25 23 46 16 20 26 40 21 43 -5 3 -6 28 -2 56 4 33 3 54
-5 60 -16 13 -136 50 -130 40 3 -5 -1 -10 -7 -13 -8 -2 -1 -10 15 -17 20 -10
24 -16 15 -22 -10 -6 -10 -8 2 -8 11 0 15 -11 15 -38 0 -46 -11 -65 -53 -86
-32 -16 -32 -17 -26 -71 6 -50 5 -55 -13 -55 -32 0 -85 21 -121 47 -63 47 -95
149 -72 233 17 63 51 104 112 134 47 24 60 26 113 20 42 -5 74 -16 108 -38z"/>
<path d="M6096 6838 c-8 -13 -17 -34 -20 -48 -4 -16 0 -12 10 10 9 19 21 41
26 48 6 6 8 12 4 12 -3 0 -12 -10 -20 -22z"/>
<path d="M6355 6641 c-3 -5 -1 -12 4 -15 5 -3 11 1 15 9 6 16 -9 21 -19 6z"/>
<path d="M2890 7969 c-61 -24 -102 -88 -103 -158 -1 -95 60 -161 156 -169 48
-3 55 -1 94 33 77 66 83 171 16 246 -47 52 -108 70 -163 48z"/>
<path d="M2350 7922 c-87 -86 -69 -226 34 -273 54 -25 86 -24 127 4 54 36 79
82 79 144 0 62 -17 100 -60 137 -26 21 -42 26 -87 26 -51 0 -59 -3 -93 -38z"/>
<path d="M7765 7567 c-159 -53 -325 -229 -376 -400 -47 -154 9 -316 120 -344
33 -8 105 12 142 40 31 22 110 124 207 267 29 41 67 93 86 115 48 56 106 162
106 193 0 41 -35 89 -82 113 -52 27 -148 34 -203 16z m174 -91 c7 -8 14 -29
17 -48 5 -27 1 -38 -20 -57 l-26 -24 0 71 c0 72 7 85 29 58z"/>
<path d="M8527 7310 c-26 -21 -114 -133 -218 -281 -30 -43 -97 -132 -149 -200
-144 -187 -170 -227 -170 -266 0 -40 19 -79 54 -112 56 -53 183 -33 288 44
116 85 335 384 385 525 12 36 23 86 23 111 0 123 -137 239 -213 179z m90 -104
c25 -22 28 -30 27 -88 0 -74 -15 -108 -113 -248 -115 -167 -167 -234 -215
-278 -43 -39 -115 -81 -141 -82 -14 0 -45 53 -45 77 0 35 48 119 116 205 38
47 127 165 197 262 70 97 132 176 137 176 5 0 22 -11 37 -24z"/>
<path d="M1584 7039 c-54 -12 -117 -68 -139 -121 -9 -23 -17 -70 -18 -104 -1
-34 -5 -60 -9 -58 -13 8 -9 -34 6 -70 7 -18 37 -56 65 -84 40 -41 55 -50 69
-43 9 5 53 14 97 20 99 14 177 60 202 119 22 52 13 164 -17 225 -54 107 -133
143 -256 116z m127 -85 c58 -30 89 -156 55 -223 -50 -95 -195 -82 -245 23 -41
83 -20 160 54 196 48 24 95 26 136 4z"/>
<path d="M2819 6165 c-1 -6 -1 -13 0 -17 10 -71 11 -175 1 -221 -16 -80 -30
-277 -20 -301 8 -20 8 -20 18 5 6 15 16 29 22 31 13 4 19 129 7 173 l-7 30 15
-25 c17 -30 19 -22 3 17 -6 15 -12 87 -13 161 -2 83 -7 138 -14 145 -6 6 -12
7 -12 2z"/>
<path d="M2666 6054 c-24 -23 -21 -99 4 -124 28 -28 84 -27 104 2 24 34 20 90
-7 116 -27 26 -79 29 -101 6z"/>
<path d="M7275 6020 c-73 -30 -96 -132 -41 -189 39 -41 91 -49 150 -22 49 21
66 48 66 102 0 37 -23 83 -52 103 -24 17 -90 20 -123 6z m75 -79 c25 -48 -7
-94 -50 -71 -24 13 -26 38 -4 68 19 27 40 28 54 3z"/>
<path d="M5905 5201 c-45 -11 -69 -26 -105 -68 -51 -58 -73 -116 -68 -182 8
-118 75 -196 193 -222 102 -23 209 32 259 133 47 94 31 194 -45 270 -65 65
-148 89 -234 69z m162 -154 c62 -68 39 -166 -47 -201 -51 -20 -63 -20 -107 1
-66 31 -93 116 -58 183 23 44 61 61 124 57 47 -3 59 -9 88 -40z"/>
<path d="M5939 5025 c-56 -30 -53 -107 6 -133 21 -10 32 -9 55 3 53 27 53 103
0 130 -34 18 -29 18 -61 0z"/>
<path d="M4476 5253 c-4 -5 -39 -17 -78 -28 -79 -22 -103 -45 -76 -71 19 -19
86 -12 94 10 4 11 10 11 34 0 34 -18 197 -21 214 -4 14 14 -5 45 -29 45 -10 0
-31 12 -46 28 -21 20 -37 27 -67 27 -21 0 -42 -3 -46 -7z"/>
<path d="M4440 5065 c-7 -8 -15 -35 -17 -59 -5 -37 -2 -46 18 -60 35 -24 94
-21 113 6 23 33 21 105 -3 118 -29 15 -97 12 -111 -5z"/>
<path d="M4222 5058 c-19 -19 -15 -82 6 -101 23 -21 66 -22 86 -1 24 24 20 80
-6 98 -27 19 -69 21 -86 4z"/>
<path d="M4660 5034 c-18 -45 -12 -63 31 -91 31 -21 45 -24 57 -16 25 15 38
77 24 108 -10 21 -18 25 -57 25 -40 0 -47 -3 -55 -26z"/>
<path d="M4354 4861 c-43 -26 -48 -55 -17 -91 34 -41 50 -38 73 13 24 51 25
83 4 91 -23 9 -26 8 -60 -13z"/>
<path d="M4520 4863 c-28 -10 -40 -37 -40 -90 0 -48 2 -53 25 -59 17 -4 41 1
72 17 65 34 73 51 47 97 -18 30 -28 37 -55 39 -19 1 -41 -1 -49 -4z"/>
<path d="M3364 5075 c-69 -29 -84 -98 -33 -146 37 -35 67 -44 115 -35 56 11
91 85 64 137 -22 40 -100 64 -146 44z"/>
<path d="M3160 4970 c0 -7 7 -10 15 -6 8 3 15 1 15 -4 0 -6 7 -10 16 -10 9 0
14 6 12 13 -6 16 -58 22 -58 7z"/>
<path d="M3343 4813 c9 -2 17 -13 17 -23 0 -23 29 -33 61 -22 22 8 21 9 -14
16 -37 7 -48 20 -24 29 6 3 -4 5 -23 5 -19 0 -27 -2 -17 -5z"/>
<path d="M3652 4503 l3 -128 35 0 35 0 0 125 0 125 -38 3 -38 3 3 -128z"/>
<path d="M3926 4568 c-20 -167 -27 -239 -21 -248 8 -13 52 -13 60 0 9 14 36
262 31 277 -3 7 -19 13 -35 13 -28 0 -30 -3 -35 -42z"/>
<path d="M3373 4563 c-7 -17 11 -217 22 -246 15 -38 79 -5 71 36 -3 12 -8 58
-11 102 -9 117 -12 125 -46 125 -18 0 -32 -6 -36 -17z"/>
<path d="M4214 4502 c-13 -9 -84 -211 -84 -240 0 -31 39 -46 62 -24 19 19 74
159 83 214 6 30 3 38 -13 47 -24 13 -33 13 -48 3z"/>
<path d="M3123 4445 c-20 -14 -20 -16 -6 -92 22 -123 31 -143 59 -143 14 0 27
7 31 17 8 22 -22 200 -38 219 -14 18 -20 18 -46 -1z"/>
<path d="M2886 4235 c-13 -35 -4 -63 32 -103 30 -33 46 -42 71 -42 29 0 32 2
26 23 -4 12 -19 47 -33 77 -23 47 -31 55 -58 58 -22 2 -33 -2 -38 -13z"/>
<path d="M3468 2923 c7 -3 16 -2 19 1 4 3 -2 6 -13 5 -11 0 -14 -3 -6 -6z"/>
<path d="M7335 2893 c-75 -17 -95 -25 -95 -39 0 -21 -42 -34 -114 -34 -98 0
-123 8 -135 41 -9 27 -14 29 -60 29 l-51 0 3 -259 3 -259 27 -35 c44 -58 106
-82 212 -82 81 1 96 4 138 28 34 20 54 41 71 75 23 46 24 54 23 295 0 136 0
246 -1 246 0 -1 -10 -3 -21 -6z m-95 -222 l0 -67 -117 1 -118 0 -3 65 -3 66
121 0 120 1 0 -66z m20 -225 c0 -31 -18 -78 -33 -88 -7 -4 -53 -8 -103 -8 -81
0 -93 2 -111 23 -12 12 -24 39 -28 60 l-7 37 141 0 141 0 0 -24z"/>
<path d="M2697 2876 c-3 -8 -7 -120 -8 -249 -2 -217 -1 -238 17 -268 25 -42
89 -88 140 -99 103 -24 191 -6 252 53 60 57 60 58 54 325 l-5 242 -39 0 c-28
0 -46 -7 -64 -25 -24 -24 -31 -25 -139 -25 l-114 0 -3 28 c-3 24 -8 27 -44 30
-29 2 -43 -1 -47 -12z m337 -168 c10 -37 7 -83 -6 -96 -8 -8 -50 -12 -125 -12
l-113 0 0 65 0 65 119 0 c115 0 119 -1 125 -22z m14 -280 c-7 -68 -22 -78
-119 -78 -96 0 -127 20 -136 88 l-6 42 133 0 133 0 -5 -52z"/>
<path d="M6620 3626 c0 -2 7 -7 16 -10 8 -3 12 -2 9 4 -6 10 -25 14 -25 6z"/>
<path d="M4490 3449 c0 -5 5 -7 10 -4 6 3 10 8 10 11 0 2 -4 4 -10 4 -5 0 -10
-5 -10 -11z"/>
<path d="M6366 2247 c3 -10 9 -15 12 -12 3 3 0 11 -7 18 -10 9 -11 8 -5 -6z"/>
</g>
</svg>
